MoBL_ARMS_module2_4_allmuscles_wrist_states		
version=1		
nRows=224		
nColumns=3		
inDegrees=yes		
		
# SIMM Motion File Header:		
name MoBL_ARMS_module2_4_allmuscles_wrist_states		
datacolumns 3		
datarows 224		
otherdata 1		
range 3.268208835 3.644506879		
endheader		
time	deviation	flexion
3.268208835	0.754669527	40.46756525
3.269904848	0.800507595	40.35182318
3.271600861	0.843535093	40.23480371
3.273296874	0.883649343	40.11627578
3.274992887	0.920990329	39.99606992
3.2766889	0.955808591	39.87407003
3.278384913	0.988326621	39.75018766
3.280080926	1.018673491	39.62434366
3.281776939	1.046860411	39.49645442
3.283472952	1.072775796	39.36642109
3.285168965	1.096247372	39.23413373
3.286864978	1.117153867	39.09949316
3.288560991	1.135508761	38.96243564
3.290257004	1.1514689	38.82294638
3.291953017	1.165295728	38.68106212
3.29364903	1.177303973	38.53686705
3.295345043	1.187805088	38.39048247
3.297041056	1.197026037	38.24204522
3.298737069	1.205056844	38.09168474
3.300433082	1.211870265	37.9395131
3.302129095	1.217385956	37.78562998
3.303825108	1.221534605	37.63013132
3.305521121	1.22429597	37.47311745
3.307217134	1.22573159	37.31470332
3.308913147	1.22598821	37.15502587
3.31060916	1.225265235	36.99424543
3.312305173	1.223785654	36.83254074
3.314001186	1.221760555	36.67010289
3.315697199	1.219365885	36.50712638
3.317393212	1.216717511	36.34379815
3.319089225	1.213860144	36.1802904
3.320785238	1.210785961	36.01675777
3.322481251	1.207466493	35.85334133
3.324177264	1.203878755	35.69017281
3.325873277	1.200017999	35.52737786
3.32756929	1.195904068	35.36507886
3.329265303	1.191579436	35.20339623
3.330961316	1.187099916	35.04244789
3.332657329	1.182517386	34.88234719
3.334353342	1.177876576	34.72320063
3.336049355	1.173216416	34.56510664
3.337745368	1.168564953	34.40815537
3.339441381	1.163941674	34.25242887
3.341137394	1.159361213	34.09800183
3.342833407	1.154835828	33.94494217
3.34452942	1.15037923	33.79331173
3.346225433	1.146009879	33.64316638
3.347921446	1.141751203	33.49455535
3.349617459	1.137627068	33.34752
3.351313472	1.133662071	33.20209454
3.353009485	1.129877291	33.05830607
3.354705498	1.126287705	32.91617477
3.356401511	1.122900544	32.77571419
3.358097524	1.119713666	32.63693172
3.359793537	1.116712339	32.49982894
3.36148955	1.113882683	32.36440207
3.363185563	1.11121233	32.23064256
3.364881576	1.108688782	32.0985377
3.366577589	1.106300155	31.96807184
3.368273602	1.104033278	31.83922976
3.369969615	1.101877101	31.71200091
3.371665628	1.099816307	31.58637626
3.373361641	1.097839036	31.4623416
3.375057654	1.095939733	31.33987687
3.376753667	1.094116122	31.21895742
3.37844968	1.092366969	31.09955539
3.380145693	1.090689873	30.98164133
3.381841706	1.089077897	30.86518973
3.383537719	1.087513904	30.7501891
3.385233732	1.085969725	30.63664784
3.386929745	1.084416505	30.5245857
3.388625758	1.082834224	30.4140265
3.390321771	1.081219579	30.30499325
3.392017784	1.079580843	30.19749894
3.393713797	1.0779249	30.09154226
3.39540981	1.076252394	29.98710566
3.397105823	1.074560977	29.88416001
3.398801836	1.072844576	29.78266976
3.400497849	1.071092852	29.68259616
3.402193862	1.06929105	29.58389847
3.403889875	1.067421214	29.4865346
3.405585888	1.065462138	29.39046081
3.407281901	1.063385299	29.29562943
3.408977914	1.061154624	29.20198756
3.410673927	1.058731136	29.10947792
3.41236994	1.056083864	29.01804313
3.414065953	1.053196286	28.92762926
3.415761966	1.05006617	28.83818749
3.417457979	1.046697895	28.74967272
3.419153992	1.043096179	28.66204196
3.420850005	1.039264505	28.57525399
3.422546018	1.035208249	28.48927018
3.424242031	1.030937699	28.40405569
3.425938044	1.02645781	28.31958223
3.427634057	1.021786679	28.23583166
3.42933007	1.016948995	28.15279853
3.431026083	1.011969187	28.07048966
3.432722096	1.006874315	27.9889213
3.434418109	1.001690225	27.90811644
3.436114122	0.996447599	27.82810034
3.437810135	0.991179437	27.74889601
3.439506148	0.98592096	27.67052111
3.441202161	0.980706127	27.59298728
3.442898174	0.975562654	27.51630125
3.444594187	0.970509501	27.440466
3.4462902	0.965558674	27.36548148
3.447986213	0.960719473	27.29134497
3.449682226	0.956001455	27.21805131
3.451378239	0.951416952	27.14559202
3.453074252	0.946982944	27.07395399
3.454770265	0.942720718	27.00311895
3.456466278	0.938651532	26.93306405
3.458162291	0.934790999	26.86376324
3.459858304	0.93114625	26.79518832
3.461554317	0.927713826	26.72730939
3.46325033	0.924478769	26.66009477
3.464946343	0.921416947	26.59351143
3.466642356	0.91850282	26.52752579
3.468338369	0.915717814	26.46210484
3.470034382	0.913053468	26.3972169
3.471730395	0.910508456	26.33283227
3.473426408	0.908082422	26.26892344
3.475122421	0.905767695	26.20546413
3.476818434	0.903545094	26.14242846
3.478514447	0.901381339	26.07978957
3.48021046	0.899230316	26.01751951
3.481906473	0.897044659	25.95559252
3.483602486	0.894786311	25.89398883
3.484400197	0.893691651	25.86512198
3.484600791	0.893412821	25.85787383
3.484801384	0.893135142	25.85063062
3.485804352	0.891779014	25.81449373
3.489867878	0.886565284	25.66945196
3.491685351	0.884247204	25.6053085
3.493502823	0.881910842	25.54162273
3.495051649	0.879891978	25.48771426
3.496600474	0.877835665	25.43414247
3.498520694	0.87524143	25.36819716
3.500218208	0.872935297	25.31034525
3.501915721	0.870665124	25.25292668
3.503613235	0.868492526	25.19596315
3.505310749	0.866484475	25.13948046
3.507008263	0.864700542	25.08350314
3.508705777	0.863181389	25.02804967
3.51040329	0.861944604	24.97313012
3.512100804	0.860986486	24.91874483
3.513798318	0.860286874	24.86488418
3.515495832	0.85981506	24.81153014
3.517193345	0.859535462	24.75865992
3.518890859	0.859410294	24.70625047
3.520588373	0.859405539	24.65427903
3.522285887	0.859491266	24.60272457
3.523983401	0.859642631	24.55156855
3.525680914	0.859839717	24.50079434
3.527378428	0.860064164	24.45038558
3.529075942	0.860296754	24.40032496
3.530773456	0.860517275	24.350594
3.532470969	0.860705583	24.3011737
3.534168483	0.860842689	24.25204548
3.535865997	0.8609239	24.20319086
3.537563511	0.860939362	24.1545947
3.539261025	0.860877544	24.10624596
3.540958538	0.860730636	24.05813679
3.542656052	0.860491765	24.0102611
3.544353566	0.860150816	23.96261363
3.54605108	0.859703033	23.91519098
3.547748594	0.85915359	23.86799335
3.549446107	0.858516913	23.82102549
3.551143621	0.85781458	23.77429727
3.552841135	0.857071	23.72782391
3.554538649	0.856309061	23.68162559
3.556236162	0.855544884	23.63572514
3.557933676	0.854783169	23.59014444
3.55963119	0.854016627	23.54490248
3.561328704	0.853230844	23.5000227
3.563026218	0.852409027	23.45554857
3.564723731	0.851534112	23.41155332
3.566421245	0.850586019	23.36814576
3.568118759	0.849537123	23.32547281
3.569816273	0.848351269	23.28371508
3.571513786	0.846986884	23.24306749
3.5732113	0.845401158	23.20371477
3.574908814	0.84355255	23.16581728
3.576606328	0.841403308	23.12951011
3.578303842	0.838921537	23.09490857
3.580001355	0.836080173	23.06211376
3.581698869	0.832847648	23.03122387
3.583396383	0.829180241	23.00234446
3.585093897	0.825030131	22.97558846
3.586791411	0.820368214	22.95105858
3.588488924	0.815199348	22.92882905
3.590186438	0.809562469	22.90893443
3.591883952	0.803512884	22.89136424
3.593581466	0.797103715	22.87606222
3.595278979	0.790376362	22.86293088
3.596976493	0.783361837	22.85184229
3.598674007	0.776085578	22.84264982
3.600371521	0.768578511	22.83519549
3.602069035	0.760902413	22.829309
3.603766548	0.753166695	22.82480578
3.605464062	0.745519618	22.82148595
3.607161576	0.738110786	22.81913213
3.60885909	0.731059245	22.81750917
3.610556603	0.724436885	22.81636818
3.612254117	0.718260382	22.81545517
3.613951631	0.712493856	22.8145202
3.615649145	0.707073936	22.81332474
3.617346659	0.701959771	22.81164699
3.619044172	0.697166981	22.80928555
3.620741686	0.692761926	22.80606263
3.6224392	0.688823295	22.80182781
3.624136714	0.685410455	22.79646018
3.625834228	0.682548773	22.78987001
3.627531741	0.680226322	22.78200113
3.629229255	0.678398246	22.77283124
3.630926769	0.677002182	22.76236862
3.632624283	0.675981234	22.75064574
3.634321796	0.675298388	22.7377132
3.63601931	0.674936178	22.72363593
3.637716824	0.674886433	22.7084914
3.639414338	0.675141423	22.69236771
3.641111852	0.675689677	22.67536304
3.642809365	0.676515395	22.65758651
3.644506879	0.677598738	22.63915747
